<svg xmlns="http://www.w3.org/2000/svg" viewBox="0 0 512.018 512.018">
	<path
		d="M377.737 112.896L270.686 6.229C266.697 2.219 261.278 0 255.625 0h-.043a21.282 21.282 0 00-15.061 6.272L134.238 112.939c-4.011 3.989-6.229 9.408-6.229 15.061v362.667c0 8.619 5.205 16.427 13.184 19.712 7.915 3.349 17.152 1.451 23.253-4.651l91.563-91.883 91.563 91.883A21.374 21.374 0 00362.676 512c2.752 0 5.525-.512 8.149-1.621 7.979-3.285 13.184-11.093 13.184-19.712V128c0-5.675-2.24-11.115-6.272-15.104z"
		fill="#F9C100" />
</svg>